# WaveFront *.obj file (generated by Autodesk ATF)

mtllib 72138bc7-89a4-4cc4-bfc1-168f2feecfec.mtl

g Body1

v 0.000000 0.000000 1.677051
v 0.000000 -48.500000 25.927051
v 0.000000 -48.500000 74.545837
v 0.000000 0.000000 147.295837
v 0.028822 0.000000 1.349875
v 0.114181 0.000000 1.035271
v 0.252796 0.000000 0.745331
v 0.439340 0.000000 0.491197
v 0.666645 0.000000 0.282634
v 0.925975 0.000000 0.127658
v 1.207365 0.000000 0.032224
v 1.500000 0.000000 0.000000
v 1.792635 0.000000 0.032224
v 2.074025 0.000000 0.127658
v 2.333355 0.000000 0.282634
v 2.560660 0.000000 0.491197
v 2.747204 0.000000 0.745331
v 2.885819 0.000000 1.035271
v 2.971178 0.000000 1.349875
v 3.000000 0.000000 1.677051
v 3.000000 -48.500000 25.927051
v 2.971178 -48.792635 25.746192
v 2.885819 -49.074025 25.572284
v 2.747204 -49.333355 25.412009
v 2.560660 -49.560660 25.271527
v 2.333355 -49.747204 25.156236
v 2.074025 -49.885819 25.070568
v 1.792635 -49.971178 25.017813
v 1.500000 -50.000000 25.000000
v 1.207365 -49.971178 25.017813
v 0.925975 -49.885819 25.070568
v 0.666645 -49.747204 25.156236
v 0.439340 -49.560660 25.271527
v 0.252796 -49.333355 25.412009
v 0.114181 -49.074025 25.572284
v 0.028822 -48.792635 25.746192
v 3.000000 -48.500000 74.545837
v 2.948889 -48.888229 74.663383
v 2.799038 -49.250000 74.772918
v 2.560660 -49.560660 74.866979
v 2.250000 -49.799038 74.939154
v 1.888229 -49.948889 74.984525
v 1.500000 -50.000000 75.000000
v 1.111771 -49.948889 74.984525
v 0.750000 -49.799038 74.939154
v 0.439340 -49.560660 74.866979
v 0.200962 -49.250000 74.772918
v 0.051111 -48.888229 74.663383
v 3.000000 0.000000 147.295837
v 2.885819 0.000000 148.330675
v 2.747204 0.000000 148.798189
v 2.560660 0.000000 149.207969
v 2.333355 0.000000 149.544266
v 2.074025 0.000000 149.794158
v 1.935427 0.000000 149.883560
v 1.792635 0.000000 149.948040
v 1.647026 0.000000 149.986979
v 1.500000 0.000000 150.000000
v 1.352974 0.000000 149.986979
v 1.207365 0.000000 149.948040
v 1.064573 0.000000 149.883560
v 0.925975 0.000000 149.794158
v 0.666645 0.000000 149.544266
v 0.439340 0.000000 149.207969
v 0.252796 0.000000 148.798189
v 0.114181 0.000000 148.330675
vt 2.350000 -4.907295 0.000000
vt 2.350000 -0.045416 0.000000
vt -2.500000 -7.332295 0.000000
vt -2.500000 7.229584 0.000000
vt -5.515170 0.353429 0.000000
vt -5.529802 0.323977 0.000000
vt -0.092705 0.353429 0.000000
vt -0.074619 0.323977 0.000000
vt -5.543871 0.294524 0.000000
vt -0.057228 0.294524 0.000000
vt -5.556838 0.265072 0.000000
vt -0.041201 0.265072 0.000000
vt -5.568203 0.235619 0.000000
vt -0.027153 0.235619 0.000000
vt -5.577530 0.206167 0.000000
vt -0.015624 0.206167 0.000000
vt -5.584461 0.176715 0.000000
vt -0.007057 0.176715 0.000000
vt -5.588729 0.147262 0.000000
vt -0.001781 0.147262 0.000000
vt -5.590170 0.117810 0.000000
vt 0.000000 0.117810 0.000000
vt -0.001781 0.088357 0.000000
vt -5.588729 0.088357 0.000000
vt -0.007057 0.058905 0.000000
vt -5.584461 0.058905 0.000000
vt -0.015624 0.029452 0.000000
vt -5.577530 0.029452 0.000000
vt -0.027153 0.000000 0.000000
vt -5.568203 0.000000 0.000000
vt -0.041201 -0.029452 0.000000
vt -5.556838 -0.029452 0.000000
vt -0.057228 -0.058905 0.000000
vt -5.543871 -0.058905 0.000000
vt -0.074619 -0.088357 0.000000
vt -5.529802 -0.088357 0.000000
vt -0.092705 -0.117810 0.000000
vt -5.515170 -0.117810 0.000000
vt -4.907295 -0.117810 0.000000
vt -0.045416 -0.117810 0.000000
vt -4.925381 -0.088357 0.000000
vt -0.033662 -0.078540 0.000000
vt -4.942772 -0.058905 0.000000
vt -0.022708 -0.039270 0.000000
vt -4.958799 -0.029452 0.000000
vt -0.013302 -0.000000 0.000000
vt -4.972847 -0.000000 0.000000
vt -4.984376 0.029452 0.000000
vt -0.006085 0.039270 0.000000
vt -4.992943 0.058905 0.000000
vt -0.001548 0.078540 0.000000
vt -4.998219 0.088357 0.000000
vt -0.000000 0.117810 0.000000
vt -5.000000 0.117810 0.000000
vt -4.998219 0.147262 0.000000
vt -0.001548 0.157080 0.000000
vt -4.992943 0.176715 0.000000
vt -0.006085 0.196350 0.000000
vt -4.984376 0.206167 0.000000
vt -0.013302 0.235619 0.000000
vt -4.972847 0.235619 0.000000
vt -4.958799 0.265072 0.000000
vt -0.022708 0.274889 0.000000
vt -4.942772 0.294524 0.000000
vt -0.033662 0.314159 0.000000
vt -4.925381 0.323977 0.000000
vt -0.045416 0.353429 0.000000
vt -4.907295 0.353429 0.000000
vt -5.154898 -0.117810 0.000000
vt 3.588564 -0.117810 0.000000
vt -5.166653 -0.078540 0.000000
vt 3.674668 -0.058905 0.000000
vt -5.177606 -0.039270 0.000000
vt 3.713567 -0.029452 0.000000
vt -5.187012 0.000000 0.000000
vt 3.747663 -0.000000 0.000000
vt 3.775645 0.029452 0.000000
vt -5.194230 0.039270 0.000000
vt 3.796437 0.058905 0.000000
vt -5.198767 0.078540 0.000000
vt 3.803875 0.073631 0.000000
vt 3.809241 0.088357 0.000000
vt 3.812480 0.103084 0.000000
vt -5.200314 0.117810 0.000000
vt 3.813564 0.117810 0.000000
vt 3.812480 0.132536 0.000000
vt -5.198767 0.157080 0.000000
vt 3.809241 0.147262 0.000000
vt 3.803875 0.161988 0.000000
vt 3.796437 0.176715 0.000000
vt -5.194230 0.196350 0.000000
vt 3.775645 0.206167 0.000000
vt -5.187012 0.235619 0.000000
vt 3.747663 0.235619 0.000000
vt 3.713567 0.265072 0.000000
vt -5.177606 0.274889 0.000000
vt 3.674668 0.294524 0.000000
vt -5.166653 0.314159 0.000000
vt 3.588564 0.353429 0.000000
vt -5.154898 0.353429 0.000000
vt 0.134987 0.297118 0.000000
vt 0.103527 0.288582 0.000000
vt 0.167705 0.300000 0.000000
vt 0.074533 0.274720 0.000000
vt 0.049120 0.256066 0.000000
vt 0.028263 0.233336 0.000000
vt 14.729584 0.300000 0.000000
vt 0.012766 0.207403 0.000000
vt 0.003222 0.179264 0.000000
vt 0.000000 0.150000 0.000000
vt 14.998698 0.164703 0.000000
vt 14.994804 0.179264 0.000000
vt 14.988356 0.193543 0.000000
vt 14.979416 0.207403 0.000000
vt 0.003222 0.120736 0.000000
vt 14.998698 0.135297 0.000000
vt 15.000000 0.150000 0.000000
vt 0.012766 0.092597 0.000000
vt 14.729584 0.000000 0.000000
vt 14.994804 0.120736 0.000000
vt 0.028263 0.066664 0.000000
vt 0.167705 0.000000 0.000000
vt 0.049120 0.043934 0.000000
vt 0.074533 0.025280 0.000000
vt 0.103527 0.011418 0.000000
vt 0.134987 0.002882 0.000000
vt 14.833068 0.011418 0.000000
vt 14.879819 0.025280 0.000000
vt 14.920797 0.043934 0.000000
vt 14.954427 0.066664 0.000000
vt 14.979416 0.092597 0.000000
vt 14.988356 0.106457 0.000000
vt 14.954427 0.233336 0.000000
vt 14.920797 0.256066 0.000000
vt 14.879819 0.274720 0.000000
vt 14.833068 0.288582 0.000000
vt 4.907295 -2.350000 0.000000
vt 7.332295 2.500000 0.000000
vt 0.045416 -2.350000 0.000000
vt -7.229584 2.500000 0.000000
vn -0.100000 0.000000 0.000000
vn -0.100000 0.000000 0.000000
vn -0.100000 0.000000 0.000000
vn -0.100000 0.000000 0.000000
vn -0.098079 -0.008725 -0.017449
vn -0.098079 -0.008725 -0.017449
vn -0.092388 -0.017114 -0.034228
vn -0.092388 -0.017114 -0.034228
vn -0.083147 -0.024846 -0.049692
vn -0.083147 -0.024846 -0.049692
vn -0.070711 -0.031623 -0.063246
vn -0.070711 -0.031623 -0.063246
vn -0.055557 -0.037184 -0.074369
vn -0.055557 -0.037184 -0.074369
vn -0.038268 -0.041317 -0.082634
vn -0.038268 -0.041317 -0.082634
vn -0.019509 -0.043862 -0.087724
vn -0.019509 -0.043862 -0.087724
vn -0.000000 -0.044721 -0.089443
vn -0.000000 -0.044721 -0.089443
vn 0.019509 -0.043862 -0.087724
vn 0.019509 -0.043862 -0.087724
vn 0.038268 -0.041317 -0.082634
vn 0.038268 -0.041317 -0.082634
vn 0.055557 -0.037184 -0.074369
vn 0.055557 -0.037184 -0.074369
vn 0.070711 -0.031623 -0.063246
vn 0.070711 -0.031623 -0.063246
vn 0.083147 -0.024846 -0.049692
vn 0.083147 -0.024846 -0.049692
vn 0.092388 -0.017114 -0.034228
vn 0.092388 -0.017114 -0.034228
vn 0.098079 -0.008725 -0.017449
vn 0.098079 -0.008725 -0.017449
vn 0.100000 -0.000000 -0.000000
vn 0.100000 0.000000 0.000000
vn 0.100000 -0.000000 0.000000
vn 0.098079 -0.019509 0.000000
vn 0.096593 -0.025882 0.000000
vn 0.092388 -0.038268 0.000000
vn 0.086603 -0.050000 0.000000
vn 0.083147 -0.055557 0.000000
vn 0.070711 -0.070711 0.000000
vn 0.070711 -0.070711 0.000000
vn 0.055557 -0.083147 0.000000
vn 0.050000 -0.086603 0.000000
vn 0.038268 -0.092388 0.000000
vn 0.025882 -0.096593 0.000000
vn 0.019509 -0.098079 0.000000
vn -0.000000 -0.100000 0.000000
vn -0.000000 -0.100000 0.000000
vn -0.019509 -0.098079 0.000000
vn -0.025882 -0.096593 0.000000
vn -0.038268 -0.092388 0.000000
vn -0.050000 -0.086603 0.000000
vn -0.055557 -0.083147 0.000000
vn -0.070711 -0.070711 0.000000
vn -0.070711 -0.070711 0.000000
vn -0.083147 -0.055557 0.000000
vn -0.086603 -0.050000 0.000000
vn -0.092388 -0.038268 0.000000
vn -0.096593 -0.025882 0.000000
vn -0.098079 -0.019509 0.000000
vn 0.100000 -0.000000 0.000000
vn 0.096593 -0.021535 0.014357
vn 0.092388 -0.031841 0.021227
vn 0.086603 -0.041603 0.027735
vn 0.083147 -0.046226 0.030817
vn 0.070711 -0.058835 0.039223
vn 0.070711 -0.058835 0.039223
vn 0.055557 -0.069182 0.046122
vn 0.050000 -0.072058 0.048038
vn 0.038268 -0.076871 0.051248
vn 0.025882 -0.080370 0.053580
vn 0.029028 -0.079622 0.053081
vn 0.019509 -0.081606 0.054404
vn 0.009802 -0.082804 0.055203
vn -0.000000 -0.083205 0.055470
vn 0.000000 -0.083205 0.055470
vn -0.009802 -0.082804 0.055203
vn -0.025882 -0.080370 0.053580
vn -0.019509 -0.081606 0.054404
vn -0.029028 -0.079622 0.053081
vn -0.038268 -0.076871 0.051248
vn -0.050000 -0.072058 0.048038
vn -0.055557 -0.069182 0.046122
vn -0.070711 -0.058835 0.039223
vn -0.070711 -0.058835 0.039223
vn -0.083147 -0.046226 0.030817
vn -0.086603 -0.041603 0.027735
vn -0.092388 -0.031841 0.021227
vn -0.096593 -0.021535 0.014357
vn 0.000000 0.100000 0.000000
vn 0.000000 0.100000 0.000000
vn 0.000000 0.100000 0.000000
vn 0.000000 0.100000 0.000000
vn 0.000000 0.100000 0.000000
vn 0.000000 0.100000 0.000000
vn 0.000000 0.100000 0.000000
vn 0.000000 0.100000 0.000000
vn 0.000000 0.100000 0.000000
vn 0.000000 0.100000 0.000000
vn 0.000000 0.100000 0.000000
vn 0.000000 0.100000 0.000000
vn 0.000000 0.100000 0.000000
vn 0.000000 0.100000 0.000000
vn 0.000000 0.100000 0.000000
vn 0.000000 0.100000 0.000000
vn 0.000000 0.100000 0.000000
vn 0.000000 0.100000 0.000000
vn 0.000000 0.100000 0.000000
vn 0.000000 0.100000 0.000000
vn 0.000000 0.100000 0.000000
vn 0.000000 0.100000 0.000000
vn 0.000000 0.100000 0.000000
vn 0.000000 0.100000 0.000000
vn 0.000000 0.100000 0.000000
vn 0.000000 0.100000 0.000000
vn 0.000000 0.100000 0.000000
vn 0.000000 0.100000 0.000000
vn 0.000000 0.100000 0.000000
vn 0.000000 0.100000 0.000000
vn 0.000000 0.100000 0.000000
vn 0.000000 0.100000 0.000000
vn 0.000000 0.100000 0.000000
vn 0.000000 0.100000 0.000000
vn 0.000000 0.100000 0.000000
vn 0.000000 0.100000 0.000000
usemtl Steel_-_Satin
f 2/1/1 3/2/2 1/3/3
f 1/3/3 3/2/2 4/4/4
f 1/5/3 5/6/5 2/7/1
f 2/7/1 5/6/5 36/8/6
f 36/8/6 5/6/5 6/9/7
f 36/8/6 6/9/7 35/10/8
f 35/10/8 6/9/7 7/11/9
f 35/10/8 7/11/9 34/12/10
f 34/12/10 7/11/9 8/13/11
f 34/12/10 8/13/11 33/14/12
f 33/14/12 8/13/11 9/15/13
f 33/14/12 9/15/13 32/16/14
f 32/16/14 9/15/13 10/17/15
f 32/16/14 10/17/15 31/18/16
f 31/18/16 10/17/15 11/19/17
f 31/18/16 11/19/17 30/20/18
f 30/20/18 11/19/17 12/21/19
f 30/20/18 12/21/19 29/22/20
f 29/22/20 12/21/19 28/23/21
f 28/23/21 12/21/19 13/24/22
f 28/23/21 13/24/22 27/25/23
f 27/25/23 13/24/22 14/26/24
f 27/25/23 14/26/24 26/27/25
f 26/27/25 14/26/24 15/28/26
f 26/27/25 15/28/26 25/29/27
f 25/29/27 15/28/26 16/30/28
f 25/29/27 16/30/28 24/31/29
f 24/31/29 16/30/28 17/32/30
f 24/31/29 17/32/30 23/33/31
f 23/33/31 17/32/30 18/34/32
f 23/33/31 18/34/32 22/35/33
f 22/35/33 18/34/32 19/36/34
f 22/35/33 19/36/34 21/37/35
f 21/37/35 19/36/34 20/38/36
f 21/39/35 37/40/37 22/41/38
f 22/41/38 37/40/37 38/42/39
f 22/41/38 38/42/39 23/43/40
f 23/43/40 38/42/39 39/44/41
f 23/43/40 39/44/41 24/45/42
f 24/45/42 39/44/41 40/46/43
f 24/45/42 40/46/43 25/47/44
f 25/47/44 40/46/43 26/48/45
f 26/48/45 40/46/43 41/49/46
f 26/48/45 41/49/46 27/50/47
f 27/50/47 41/49/46 42/51/48
f 27/50/47 42/51/48 28/52/49
f 28/52/49 42/51/48 43/53/50
f 28/52/49 43/53/50 29/54/51
f 29/54/51 43/53/50 30/55/52
f 30/55/52 43/53/50 44/56/53
f 30/55/52 44/56/53 31/57/54
f 31/57/54 44/56/53 45/58/55
f 31/57/54 45/58/55 32/59/56
f 32/59/56 45/58/55 46/60/57
f 32/59/56 46/60/57 33/61/58
f 33/61/58 46/60/57 34/62/59
f 34/62/59 46/60/57 47/63/60
f 34/62/59 47/63/60 35/64/61
f 35/64/61 47/63/60 48/65/62
f 35/64/61 48/65/62 36/66/63
f 36/66/63 48/65/62 3/67/2
f 36/66/63 3/67/2 2/68/1
f 37/69/37 49/70/64 38/71/65
f 38/71/65 49/70/64 50/72/66
f 38/71/65 50/72/66 39/73/67
f 39/73/67 50/72/66 51/74/68
f 39/73/67 51/74/68 40/75/69
f 40/75/69 51/74/68 52/76/70
f 40/75/69 52/76/70 53/77/71
f 40/75/69 53/77/71 41/78/72
f 41/78/72 53/77/71 54/79/73
f 41/78/72 54/79/73 42/80/74
f 42/80/74 54/79/73 55/81/75
f 42/80/74 55/81/75 56/82/76
f 56/82/76 57/83/77 42/80/74
f 42/80/74 57/83/77 43/84/78
f 43/84/78 57/83/77 58/85/79
f 43/84/78 58/85/79 59/86/80
f 43/84/78 59/86/80 44/87/81
f 44/87/81 59/86/80 60/88/82
f 44/87/81 60/88/82 61/89/83
f 61/89/83 62/90/84 44/87/81
f 44/87/81 62/90/84 45/91/85
f 45/91/85 62/90/84 63/92/86
f 45/91/85 63/92/86 46/93/87
f 46/93/87 63/92/86 64/94/88
f 46/93/87 64/94/88 65/95/89
f 46/93/87 65/95/89 47/96/90
f 47/96/90 65/95/89 66/97/91
f 47/96/90 66/97/91 48/98/92
f 48/98/92 66/97/91 4/99/4
f 48/98/92 4/99/4 3/100/2
f 19/101/93 18/102/94 20/103/95
f 20/103/95 18/102/94 17/104/96
f 20/103/95 17/104/96 16/105/97
f 16/105/97 15/106/98 20/103/95
f 20/103/95 15/106/98 49/107/99
f 49/107/99 15/106/98 14/108/100
f 49/107/99 14/108/100 13/109/101
f 12/110/102 57/111/103 13/109/101
f 13/109/101 57/111/103 56/112/104
f 13/109/101 56/112/104 49/107/99
f 49/107/99 56/112/104 55/113/105
f 49/107/99 55/113/105 54/114/106
f 11/115/107 59/116/108 12/110/102
f 12/110/102 59/116/108 58/117/109
f 12/110/102 58/117/109 57/111/103
f 10/118/110 4/119/111 11/115/107
f 11/115/107 4/119/111 60/120/112
f 11/115/107 60/120/112 59/116/108
f 10/118/110 9/121/113 4/119/111
f 4/119/111 9/121/113 1/122/114
f 1/122/114 9/121/113 8/123/115
f 1/122/114 8/123/115 7/124/116
f 7/124/116 6/125/117 1/122/114
f 1/122/114 6/125/117 5/126/118
f 66/127/119 65/128/120 4/119/111
f 4/119/111 65/128/120 64/129/121
f 4/119/111 64/129/121 63/130/122
f 63/130/122 62/131/123 4/119/111
f 4/119/111 62/131/123 61/132/124
f 4/119/111 61/132/124 60/120/112
f 54/114/106 53/133/125 49/107/99
f 49/107/99 53/133/125 52/134/126
f 49/107/99 52/134/126 51/135/127
f 51/135/127 50/136/128 49/107/99
f 21/137/35 20/138/36 37/139/37
f 37/139/37 20/138/36 49/140/64

# 66 vertices
# 140 texture params
# 128 normals
# 128 facets

# 1 groups
